HIERARCHY
ROOT Hips
{
	OFFSET -3.958830 18.904000 13.208200
	CHANNELS 6 Xposition Yposition Zposition Zrotation Yrotation Xrotation 
	JOINT LHipJoint
	{
		OFFSET 0.000000 0.000000 0.000000
		CHANNELS 3 Zrotation Yrotation Xrotation
		JOINT LeftUpLeg
		{
			OFFSET 1.800000 -1.400000 0.085000
			CHANNELS 3 Zrotation Yrotation Xrotation
			JOINT LeftLeg
			{
				OFFSET 2.215000 -6.000000 0.000000
				CHANNELS 3 Zrotation Yrotation Xrotation
				JOINT LeftFoot
				{
					OFFSET 2.500000 -6.900000 0.000000
					CHANNELS 3 Zrotation Yrotation Xrotation
					JOINT LeftToeBase
					{
						OFFSET 0.200000 -0.500000 1.950000
						CHANNELS 3 Zrotation Yrotation Xrotation
						End Site
						{
							OFFSET 0.000000 0.000000 0.000000
						}
					}
				}
			}
		}
	}
	JOINT RHipJoint
	{
		OFFSET 0.000000 0.000000 0.000000
		CHANNELS 3 Zrotation Yrotation Xrotation
		JOINT RightUpLeg
		{
			OFFSET -1.800000 -1.400000 0.085000
			CHANNELS 3 Zrotation Yrotation Xrotation
			JOINT RightLeg
			{
				OFFSET -2.215000 -6.000000 0.000000
				CHANNELS 3 Zrotation Yrotation Xrotation
				JOINT RightFoot
				{
					OFFSET -2.500000 -6.900000 0.000000
					CHANNELS 3 Zrotation Yrotation Xrotation
					JOINT RightToeBase
					{
						OFFSET -0.200000 -0.500000 1.950000
						CHANNELS 3 Zrotation Yrotation Xrotation
						End Site
						{
							OFFSET 0.000000 0.000000 0.000000
						}
					}
				}
			}
		}
	}
	JOINT LowerBack
	{
		OFFSET 0.000000 0.000000 0.000000
		CHANNELS 3 Zrotation Yrotation Xrotation
		JOINT Spine
		{
			OFFSET -0.087000 1.940000 -0.288900
			CHANNELS 3 Zrotation Yrotation Xrotation
			JOINT Spine1
			{
				OFFSET 0.000000 1.950000 0.060000
				CHANNELS 3 Zrotation Yrotation Xrotation
				JOINT Neck
				{
					OFFSET 0.000000 0.000000 0.000000
					CHANNELS 3 Zrotation Yrotation Xrotation
					JOINT Neck1
					{
						OFFSET 0.000000 1.600000 0.340000
						CHANNELS 3 Zrotation Yrotation Xrotation
						JOINT Head
						{
							OFFSET 0.000000 1.667000 -0.240000
							CHANNELS 3 Zrotation Yrotation Xrotation
							End Site
							{
								OFFSET 0.000000 0.000000 0.000000
							}
						}
					}
				}
				JOINT LeftShoulder
				{
					OFFSET 0.000000 0.000000 0.000000
					CHANNELS 3 Zrotation Yrotation Xrotation
					JOINT LeftArm
					{
						OFFSET 2.700000 1.550000 -0.730000
						CHANNELS 3 Zrotation Yrotation Xrotation
						JOINT LeftForeArm
						{
							OFFSET 5.450000 0.000000 0.000000
							CHANNELS 3 Zrotation Yrotation Xrotation
							JOINT LeftHand
							{
								OFFSET 3.450000 0.000000 0.000000
								CHANNELS 3 Zrotation Yrotation Xrotation
								JOINT LeftHandIndex1
								{
									OFFSET 0.750000 0.000000 0.000000
									CHANNELS 3 Zrotation Yrotation Xrotation
									End Site
									{
										OFFSET 0.000000 0.000000 0.000000
									}
								}
							}
						}
					}
				}
				JOINT RightShoulder
				{
					OFFSET 0.000000 0.000000 0.000000
					CHANNELS 3 Zrotation Yrotation Xrotation
					JOINT RightArm
					{
						OFFSET -2.700000 1.550000 -0.730000
						CHANNELS 3 Zrotation Yrotation Xrotation
						JOINT RightForeArm
						{
							OFFSET -5.450000 0.000000 0.000000
							CHANNELS 3 Zrotation Yrotation Xrotation
							JOINT RightHand
							{
								OFFSET -3.450000 0.000000 0.000000
								CHANNELS 3 Zrotation Yrotation Xrotation
								JOINT RightHandIndex1
								{
									OFFSET -0.750000 0.000000 0.000000
									CHANNELS 3 Zrotation Yrotation Xrotation
									End Site
									{
										OFFSET 0.000000 0.000000 0.000000
									}
								}
							}
						}
					}
				}
			}
		}
	}
}
MOTION
Frames: 13
Frame Time: 0.016667
-1.085450 19.173920 -3.130300 -8.842236 15.940133 -3.865152 -15.064376 12.755298 2.107402 -0.566439 -0.723932 -9.859087 0.845935 3.601982 13.325264 -0.962085 4.179505 3.433201 -0.163760 -0.417720 -0.450950 18.679998 -9.318535 4.707722 -3.285827 10.069688 -47.310076 9.125806 -10.428904 42.246273 -0.670204 -6.532950 1.868396 -0.036370 1.174680 0.631640 -4.577420 -2.010749 -7.829290 16.639682 -5.707470 13.193031 -2.618562 -4.752025 15.078754 1.207725 1.502084 -6.621681 -2.189416 -0.403649 52.370409 -1.353780 -4.348200 -1.484450 -11.212601 -6.620163 0.490101 12.046610 -3.651208 1.266591 1.507866 -28.946543 0.366085 -4.342663 3.001059 0.519790 0.615020 -0.155540 0.339450 9.661276 2.330118 2.774621 -2.610448 -11.685975 -4.161585 -8.696026 63.684382 -3.492196 1.729810 -1.664546 -0.465930 0.615790 0.585620 0.153370 
-1.061300 19.093380 -3.108770 -7.747914 16.443233 -4.200421 -15.198154 13.016647 2.273171 -0.774828 -0.531389 -8.912576 0.262459 3.794071 13.373282 -1.023720 4.226810 3.360787 -0.015960 -0.248000 -0.273980 18.485573 -9.415802 4.466416 -3.226149 8.844604 -45.387884 8.747437 -8.775016 36.134734 -0.538479 -5.237145 2.263443 0.050030 0.999860 0.612130 -4.121710 -2.390403 -7.804342 13.200849 -4.871608 13.995497 -0.475317 -4.378058 15.721731 1.661002 3.172752 -6.853628 0.861101 -2.269850 54.932834 -2.368650 -3.968680 -6.733790 -12.483651 -8.136553 0.715956 13.773433 -4.209863 0.969413 2.872036 -25.069855 -0.091952 -4.246158 2.852834 0.669250 0.496800 -0.002380 0.322860 10.498399 3.141135 2.841093 -4.801333 -11.794500 -3.899253 -8.174180 59.593799 -2.728566 1.736318 -1.571308 -0.457450 0.649600 0.504690 0.081310 
-1.034640 18.941150 -3.073830 -7.042883 16.999423 -3.471216 -15.283333 13.161222 2.380295 -1.002691 -0.681452 -9.517571 0.043449 3.869865 14.102425 -1.017796 4.212774 3.318448 0.033420 -0.211570 -0.174500 18.354764 -9.501177 4.318513 -2.916983 7.902595 -44.456265 8.261601 -6.803271 27.939854 -0.320674 -3.768858 2.731417 0.047970 0.884980 0.645630 -3.823460 -2.525657 -7.756105 10.893304 -4.223147 13.615950 0.790347 -4.126501 15.426406 2.095832 4.708690 -7.278469 4.109688 -4.174896 54.942927 -4.733380 -3.287620 -7.440810 -12.984333 -9.243156 1.274781 15.657297 -4.139393 0.949319 3.850444 -18.214283 -0.494549 -4.245160 2.814075 0.694830 0.460310 0.060930 0.289200 10.413898 3.503368 3.003425 -5.696783 -10.747226 -3.402538 -6.970288 54.202469 -1.569325 1.770274 -1.557230 -0.410970 0.568010 0.462910 0.039190 
-0.996840 18.768420 -3.046270 -6.239275 17.115862 -2.893609 -15.431814 13.389401 2.501247 -1.236604 -0.715721 -9.668212 -0.150267 3.946587 14.302567 -0.996684 4.187912 3.273585 0.087650 -0.164750 -0.048520 18.169884 -9.448160 4.183158 -2.331172 7.043025 -43.229461 7.646766 -5.051341 19.660191 -0.184397 -2.498717 3.138719 0.046180 0.736940 0.648940 -3.328912 -3.036949 -7.756085 7.621895 -4.034755 13.789252 2.894612 -4.381319 14.959506 2.281698 5.097100 -7.631782 4.982826 -4.381943 55.925273 -6.848680 -1.854380 -9.199720 -13.513231 -10.352313 1.891326 17.029487 -2.863357 1.099310 2.221549 -15.656823 -0.381428 -4.162720 2.834423 0.745230 0.383070 0.147380 0.238570 10.879631 4.891967 2.929920 -9.435864 -7.809868 -2.362089 -3.289654 47.208665 0.479525 1.859095 -1.515400 -0.370650 0.503170 0.413430 -0.012790 
-0.971700 18.591120 -3.030010 -5.121422 15.978868 -2.836483 -15.578318 13.575867 2.610576 -1.297622 -0.765528 -9.491665 -1.381388 4.446778 15.632347 -0.957153 4.392934 3.180159 0.099530 -0.176090 -0.007170 17.991693 -9.336200 4.152729 -1.952022 6.648935 -42.137701 7.090157 -3.795455 12.682692 -0.146238 -1.692076 3.432272 0.007600 0.674650 0.651590 -2.820752 -3.519112 -7.873120 4.138738 -3.059926 15.361197 4.702302 -3.733312 14.020983 2.271324 5.547363 -8.359146 6.045078 -4.583294 58.570965 -6.310190 -1.354400 -11.254890 -14.904193 -12.131460 2.720424 19.073053 0.439798 1.219073 2.746143 -14.633853 -0.554772 -4.074997 2.798183 0.863770 0.307250 0.231490 0.230700 12.459549 7.125165 3.274094 -12.466422 -5.189872 -2.134377 -2.294398 38.133141 1.208134 1.904254 -1.341059 -0.373990 0.514090 0.406240 -0.041220 
-0.965990 18.411240 -3.034130 -3.368177 14.449006 -3.029777 -15.761697 13.770773 2.707142 -2.086470 -0.737921 -9.139106 -1.982019 4.889564 17.329944 -0.920164 4.627548 3.067405 0.099690 -0.173060 0.025360 17.803365 -9.113741 4.125865 -1.592173 6.236272 -40.826813 6.853287 -2.815261 5.864559 -0.121149 -1.232513 3.613574 0.000550 0.623930 0.619610 -2.236606 -4.205457 -7.974087 -0.187089 -2.032006 17.451455 6.009754 -3.159536 13.570665 2.117878 5.441610 -8.312904 5.779691 -3.955705 59.413589 -5.658990 -0.750840 -13.919530 -16.260640 -12.694487 2.882466 21.389910 5.019368 1.693654 3.788966 -15.706758 -0.665998 -4.006622 2.822749 0.930510 0.252280 0.273160 0.194900 14.227466 8.634310 3.253241 -14.385216 -1.719393 -2.605546 -3.649055 31.311334 1.015467 1.929960 -1.176490 -0.389060 0.545630 0.417870 -0.072620 
-0.927770 18.223100 -3.052870 -2.301113 12.642053 -3.655430 -15.896195 13.857462 2.756951 -2.385830 -0.697425 -8.486555 -3.504071 5.632119 19.084867 -0.840405 4.981096 2.900426 0.156910 -0.116530 0.091690 17.688256 -8.874393 4.139193 -0.822527 6.227814 -39.746632 6.604554 -2.169348 0.590189 -0.174429 -1.076474 3.646009 0.009360 0.543830 0.665980 -1.833972 -4.708533 -8.059513 -2.746677 -0.561356 19.539090 7.329387 -2.021146 13.339906 2.183438 5.745159 -7.924255 6.190508 -4.305299 58.862358 -6.519810 -0.505450 -17.234750 -17.561486 -13.024891 2.674993 23.243405 6.079313 1.856429 4.349554 -14.019137 -0.835597 -3.959721 2.859169 0.984460 0.203830 0.352800 0.178860 15.365222 9.545711 3.217597 -16.525415 -0.270249 -2.834831 -4.173039 26.538179 0.899751 1.955703 -1.124972 -0.343740 0.512450 0.399330 -0.092320 
-0.893890 18.041040 -3.065030 -0.712596 11.758025 -3.866612 -16.014180 13.921417 2.872884 -3.734168 -0.982968 -8.729946 -4.569132 6.420542 22.179865 -0.661832 5.333680 2.751451 0.149910 -0.117940 0.102910 17.580134 -8.626970 4.167742 -1.081927 5.819479 -38.945180 6.899304 -1.675916 -4.258484 -0.224178 -1.090832 3.661238 -0.041340 0.465200 0.639460 -1.485191 -5.240045 -8.221502 -5.384297 0.943553 21.803828 8.702734 -0.807578 12.014124 1.994671 5.367649 -8.523329 4.717472 -4.206312 59.679363 -6.320280 -0.788800 -18.431280 -18.144251 -13.755654 2.813836 23.619365 6.117664 1.580509 4.102699 -13.719950 -0.731231 -3.859365 2.852971 1.015040 0.126510 0.404480 0.167580 16.087422 11.128003 4.439020 -16.703096 -3.066938 -2.892800 -6.245511 25.525202 0.566229 2.023302 -1.086372 -0.307900 0.479700 0.368470 -0.088720 
-0.830400 17.870700 -3.055560 0.960117 10.406506 -3.253235 -16.043204 13.768741 3.000907 -5.432325 -1.438153 -9.478393 -6.010667 7.353874 25.120032 -0.459782 5.724339 2.614744 0.083600 -0.193910 0.064530 17.570770 -8.475358 4.256501 -1.494796 5.817000 -39.700145 7.682824 -1.443263 -6.450284 -0.235267 -1.130658 3.673637 -0.129240 0.443510 0.609570 -1.408780 -5.234636 -8.384965 -7.024601 2.365861 22.717466 9.150725 0.296618 10.398891 1.807296 5.424697 -10.026649 4.666427 -4.192682 60.958747 -5.375920 -0.645760 -16.572250 -17.836024 -14.528872 3.737188 22.215764 6.529929 1.249187 5.366099 -12.491866 -0.784909 -3.837508 2.762994 1.020110 0.089180 0.412290 0.162600 15.967089 12.054054 5.883497 -14.066520 -6.811584 -3.113197 -9.588770 28.361904 -0.025034 2.072767 -1.059038 -0.296410 0.441570 0.359620 -0.075190 
-0.737580 17.734280 -3.027480 1.692650 9.225546 -2.997828 -16.045778 13.650014 3.095123 -6.322159 -1.880595 -10.138396 -7.021122 8.215605 27.837437 -0.359686 6.232872 2.454126 0.006380 -0.300600 0.033470 17.590770 -8.434198 4.259268 -0.695005 6.089016 -40.825062 7.210518 -1.566321 -5.550290 -0.181747 -1.037375 3.718222 -0.180750 0.491490 0.600670 -1.415970 -5.140727 -8.417943 -7.633027 3.284821 23.351897 9.627657 0.915578 9.919570 1.730605 5.885219 -10.706520 5.870445 -4.726913 58.961394 -5.461800 -0.538980 -15.319630 -16.670974 -14.651488 4.163670 19.236087 5.059774 0.783954 5.604877 -15.088383 -0.726179 -3.901540 2.689119 1.017390 0.118950 0.370380 0.142790 14.797225 12.002500 6.436349 -11.234566 -6.255171 -3.557358 -10.768321 27.694585 -0.213426 2.051519 -0.964017 -0.338290 0.452600 0.401040 -0.085910 
-0.647420 17.722650 -3.031010 2.480901 7.719326 -5.572330 -16.035095 13.818455 3.239806 -7.180928 -1.533365 -8.087512 -7.567436 8.807635 28.996085 -0.237127 6.596124 2.329123 -0.025280 -0.327770 0.010500 17.583123 -8.498055 4.065476 0.130820 5.687806 -38.763043 7.368692 -1.890716 -3.364349 -0.176458 -0.963557 3.750851 -0.212180 0.481930 0.587720 -1.427084 -5.459735 -8.441036 -8.125924 3.982591 28.306369 8.928106 1.339073 10.447217 1.522917 4.819769 -11.305492 3.622529 -3.298960 57.577230 -3.794280 -0.343720 -18.043690 -15.343211 -14.320356 4.431475 15.957252 6.000200 0.191734 6.958197 -21.007647 -0.873955 -3.864938 2.686709 1.050030 0.081510 0.385310 0.117700 13.415993 12.833816 7.214092 -5.886362 -5.440555 -5.494685 -15.720134 31.151113 -1.624666 1.995714 -0.872482 -0.340430 0.465400 0.429920 -0.086830 
-0.514400 17.704140 -2.974760 2.451696 6.305005 -6.237699 -16.010329 13.794231 3.324576 -7.966463 -1.272848 -7.202154 -8.354878 9.227411 29.188716 -0.166782 6.771433 2.287413 -0.016190 -0.299650 -0.003010 17.614096 -8.587487 3.960627 1.424374 5.847896 -37.989571 7.166949 -2.193236 -0.391798 -0.144404 -0.944956 3.761518 -0.186280 0.507910 0.597260 -1.498713 -5.367988 -8.409532 -7.199085 3.618034 29.222073 8.434251 1.037689 11.347307 1.600620 4.671938 -10.918795 3.890302 -2.690781 54.548114 -4.252650 0.430410 -17.940550 -14.472397 -13.375293 4.860989 11.436985 6.841354 -0.243403 7.784223 -23.811725 -1.202278 -3.870257 2.729035 0.997750 0.116360 0.360130 0.135680 12.277537 12.254407 6.175004 -1.158858 -4.567118 -8.037630 -19.457849 42.228597 -4.361616 1.876664 -0.930659 -0.332440 0.454760 0.416830 -0.070200 
-0.378220 17.743780 -2.918670 2.517329 5.444121 -7.657017 -15.966002 13.825193 3.411019 -8.330644 -0.677207 -5.054360 -9.339828 9.543401 28.194167 -0.087085 6.845814 2.290370 0.005490 -0.245320 -0.025330 17.646745 -8.755483 3.789854 2.031129 5.501828 -36.068626 7.066965 -2.516162 2.515283 -0.131442 -1.035267 3.743263 -0.150080 0.530490 0.582450 -1.612183 -5.268132 -8.361363 -6.123180 3.205550 31.204407 7.597004 0.851905 12.040719 1.487819 4.248342 -10.597296 3.447534 -2.107383 51.928529 -3.337670 0.492840 -17.576890 -13.261411 -12.505519 4.841074 6.644325 6.107562 -1.189224 6.762890 -28.680391 -1.315546 -3.829528 2.779528 0.939690 0.133610 0.334020 0.166390 11.127583 11.870108 5.687735 5.662733 -2.946995 -10.829968 -24.198321 48.995853 -8.070829 1.769214 -0.935010 -0.320420 0.452240 0.386920 -0.039860 
